<svg width="622" height="445" viewBox="0 0 622 445" fill="none" xmlns="http://www.w3.org/2000/svg">
<path fill-rule="evenodd" clip-rule="evenodd" d="M104.858 247.514L101.395 245.996L115.76 244.243C116.015 244.658 116.263 245.025 116.553 245.414L104.858 247.514ZM143.417 247.514L146.884 245.904L132.6 244.198C132.475 244.658 132.096 245.025 131.84 245.414L143.417 247.514ZM141.333 247.754L136.98 249.215L130.794 247.335L130.258 247.167C130.465 247.004 130.632 246.841 130.794 246.62C131.055 246.417 131.264 246.12 131.509 245.905L141.333 247.755V247.754ZM152.819 243.696L148.844 245.541L132.973 243.696C133.102 243.324 133.228 242.946 133.346 242.561L152.819 243.696ZM154.237 243.144L159.42 239.849H131.349C131.349 241.023 131.179 242.03 130.793 242.899C129.717 245.7 127.004 247.043 124.287 247.003C121.619 246.925 118.898 245.542 117.687 242.987C117.264 242.057 117.017 241.071 117.017 239.85H88.8572L93.9953 243.145L115.51 242.03C115.925 243.569 116.688 244.913 117.687 245.903C119.404 247.712 121.859 248.709 124.287 248.709C126.67 248.759 129.087 247.882 130.793 245.954C131.719 244.953 132.427 243.654 132.849 242.095L154.236 243.145L154.237 243.144ZM130.793 251.689L131.349 252.695L130.793 252.948L129.338 253.619L127.67 250.308C126.623 250.675 125.464 250.886 124.287 250.93C123.032 250.976 121.731 250.799 120.604 250.43L119.191 253.619C118.727 253.655 118.101 253.619 117.687 253.319C117.473 253.19 117.264 252.985 117.18 252.696L117.687 251.852L118.898 249.68C118.517 249.424 118.187 249.257 117.846 248.924L118.852 247.712C120.573 248.761 122.447 249.338 124.289 249.338C126.129 249.384 127.959 248.796 129.673 247.585L130.794 247.919L131.264 248.092L130.794 248.464C130.466 248.796 130.176 249.13 129.638 249.424L130.794 251.689H130.793ZM130.793 234.568C131.882 235.862 132.683 237.462 133.101 239.301H131.308C131.178 238.759 131.01 238.212 130.792 237.711C129.595 234.532 127.122 232.274 124.286 230.39L123.197 229.719L124.286 230.096C126.869 231.141 129.168 232.566 130.793 234.568ZM125.948 246.374C126.42 246.292 127.125 246.036 127.67 245.618L124.822 239.971L127.79 238.551L125.29 236.38L124.287 236.835L119.979 238.796L121.243 241.641L123.282 240.726L125.948 246.373V246.374ZM118.187 247.167C118.017 247.044 117.846 246.881 117.687 246.748C117.353 246.457 117.054 246.16 116.858 245.869L107.037 247.725L111.217 249.131L118.187 247.167ZM115.51 243.697C115.344 243.325 115.224 242.947 115.094 242.562L95.4593 243.697L99.4278 245.618L115.51 243.697Z" fill="#00529B"/>
<path fill-rule="evenodd" clip-rule="evenodd" d="M238.886 275.947C245.362 276.969 257.769 278.573 272.962 278.907C288.126 279.29 305.952 278.402 322.799 275.881C339.644 273.432 355.434 269.319 366.647 264.883C377.945 260.62 384.263 255.424 384.234 255.404C384.295 255.435 377.712 261.444 365.744 266.602C353.899 271.957 337.175 277.092 319.565 280.41C301.973 283.82 283.522 285.377 268.512 285.47C253.506 285.644 241.847 284.289 237.762 283.647C223.642 281.54 213.386 277.821 207.126 274.239C200.807 270.631 198.702 267.371 199.361 266.737C200.06 265.985 203.206 267.507 209.578 269.482C215.957 271.483 225.667 273.981 238.887 275.949L238.886 275.947Z" fill="#F47920"/>
<path fill-rule="evenodd" clip-rule="evenodd" d="M508.616 169.113L506.211 169.419L504.669 169.566C501.776 169.818 497.411 170.189 493.558 172.647C489.737 175.089 485.359 180.189 482.3 184.114C449.121 189.679 430.931 209.369 418.894 222.414L411.349 231.234L412.613 230.84C435.223 209.944 455.388 198.768 474.271 196.678L474.55 196.647L477.065 193.36L482.357 186.409C484.532 184.446 487.543 183.753 491.974 183.246L499.709 182.75L508.863 182.107C514.092 181.407 518.584 180.199 524.748 171.718L533.143 160.368L532.159 159.514C524.456 167.157 516.043 168.195 508.617 169.11L508.616 169.113ZM508.775 170.411C515.208 169.619 522.347 168.474 529.235 163.455C526.75 166.818 523.693 170.951 523.693 170.951C517.819 179.03 513.771 180.136 508.688 180.815C508.688 180.819 499.653 181.447 499.653 181.447L491.827 181.954C488.521 182.328 486.116 183.032 484.004 184.085C486.947 180.375 490.851 175.934 494.267 173.753C497.843 171.463 502.015 171.111 504.777 170.87L506.386 170.711L508.774 170.411H508.775ZM481.28 185.685C480.686 186.453 476.029 192.568 476.029 192.568L473.836 195.436C457.705 197.296 440.675 205.707 422.078 220.919C433.829 208.277 451.248 191.128 481.28 185.685Z" fill="black"/>
<path fill-rule="evenodd" clip-rule="evenodd" d="M412.186 230.39C436.18 212.826 449.08 205.851 477.581 205.597L471.44 213.891C470.284 216.352 468.492 216.241 466.603 216.128C446.228 215.965 431.996 217.487 407.243 235.491L412.186 230.39Z" fill="url(#paint0_linear_14_68)"/>
<path fill-rule="evenodd" clip-rule="evenodd" d="M412.171 230.362C436.316 208.048 456.474 197.996 474.199 196.035C475.768 193.955 481.181 186.989 482.822 184.669C442.418 191.277 424.555 218.666 412.171 230.362Z" fill="white"/>
<path fill-rule="evenodd" clip-rule="evenodd" d="M413.411 229.085C412.932 229.544 411.266 231.343 410.788 231.773C424.957 221.307 436.824 210.414 466.379 206.387C467.852 204.716 472.15 199.053 474.176 196.034C447.232 199.703 429.611 214.768 413.411 229.085Z" fill="url(#paint1_linear_14_68)"/>
<path fill-rule="evenodd" clip-rule="evenodd" d="M470.905 214.848C471.165 213.934 471.802 213.254 468.806 211.485C465.282 209.406 464.063 210.28 464.843 208.166C465.423 206.56 472.992 203.366 478.516 205.241C478.517 205.242 473.615 210.93 470.905 214.848Z" fill="url(#paint2_linear_14_68)"/>
<path fill-rule="evenodd" clip-rule="evenodd" d="M492.131 182.056C486.604 182.797 483.119 184.177 480.905 186.971L473.188 197.324C474.87 195.818 479.957 195.076 485.468 194.934L486.24 194.949L486.942 194.934L489.403 194.856C497.219 194.55 508.071 193.445 514.406 186.05L523.9 172.903L525.036 171.337C516.791 182.214 497.978 181.274 492.133 182.055L492.131 182.056Z" fill="#00529B"/>
<path fill-rule="evenodd" clip-rule="evenodd" d="M496.714 193.561C490.785 194.392 484.004 194.639 482.06 194.737C478.738 194.884 474.323 195.947 473.101 197.43C469.377 202.065 465.811 206.387 464.845 208.167C467.12 206.061 474.605 206.292 483.688 205.872C492.762 205.457 501.955 201.528 509.205 193.25L514.713 185.626C511.025 190.364 504.529 192.468 496.714 193.561Z" fill="#C4161C"/>
<path fill-rule="evenodd" clip-rule="evenodd" d="M506.298 170.065C503.884 170.391 498.44 170.304 493.912 173.201C489.376 176.098 483.915 182.972 481.23 186.591C483.725 183.917 487.038 183.157 491.9 182.605C496.76 182.043 503.782 182.14 508.774 181.464C513.569 180.826 518.028 179.861 524.218 171.341L532.616 159.985C523.911 168.622 514.404 168.98 506.297 170.065H506.298Z" fill="url(#paint3_linear_14_68)"/>
<path fill-rule="evenodd" clip-rule="evenodd" d="M149.679 212.081V203.397H166.015V198.835H149.679V190.928H166.898V186.364H137.572V216.695H167.851V212.081H149.679Z" fill="#00529B"/>
<path fill-rule="evenodd" clip-rule="evenodd" d="M185.564 216.695V190.93H192.678C194.844 190.93 196.845 191.092 198.672 192.314C200.001 193.261 200.836 194.608 200.836 196.28C200.836 197.675 200.341 199.111 198.508 200.275C196.119 201.834 191.957 202.048 189.346 201.732L187.847 201.553L199.905 216.695H213.896L202.452 204.059C204.502 203.834 207.789 203.017 209.783 201.734C212.17 200.112 213.39 197.721 213.39 195.49C213.39 192.991 212.05 190.272 209.009 188.485C205.39 186.43 200.453 186.369 195.899 186.369H173.404V216.698H185.564V216.695Z" fill="#00529B"/>
<path fill-rule="evenodd" clip-rule="evenodd" d="M283.328 199.33V190.93H300.994V186.365H271.229V216.696H283.328V203.896H299.661V199.331L283.328 199.33Z" fill="#00529B"/>
<path fill-rule="evenodd" clip-rule="evenodd" d="M305.383 186.364V216.695H335.386V212.081H317.55V186.365L305.383 186.364Z" fill="#00529B"/>
<path fill-rule="evenodd" clip-rule="evenodd" d="M423.645 186.364H385.378V190.928H398.431V216.694H410.599V190.928H423.644V186.364H423.645Z" fill="#00529B"/>
<path fill-rule="evenodd" clip-rule="evenodd" d="M359.604 185.483C353.938 185.483 345.994 186.766 340.659 190.593C336.429 193.597 334.438 197.894 334.438 201.554C334.438 205.177 336.431 209.465 340.659 212.469C345.994 216.244 353.938 217.526 359.604 217.526C365.264 217.526 373.265 216.244 378.594 212.469C382.821 209.464 384.769 205.176 384.769 201.554C384.769 197.894 382.821 193.597 378.594 190.593C373.265 186.766 365.264 185.537 359.604 185.483ZM359.604 213.858C356.599 213.858 353.045 213.189 350.427 209.903C348.263 207.236 347.877 204.168 347.877 201.553C347.877 198.835 348.263 195.825 350.427 193.157C353.045 189.809 356.599 189.15 359.604 189.15C362.65 189.15 366.162 189.809 368.812 193.157C370.985 195.825 371.378 198.835 371.378 201.553C371.378 204.168 370.985 207.236 368.812 209.903C366.162 213.191 362.65 213.858 359.604 213.858Z" fill="#00529B"/>
<path fill-rule="evenodd" clip-rule="evenodd" d="M241.866 185.483C236.205 185.483 228.264 186.766 222.933 190.593C218.702 193.597 216.702 197.894 216.702 201.554C216.702 205.177 218.703 209.465 222.933 212.469C228.264 216.244 236.207 217.526 241.866 217.526C247.526 217.526 255.532 216.244 260.868 212.469C265.083 209.464 267.034 205.176 267.034 201.554C267.034 197.894 265.083 193.597 260.868 190.593C255.532 186.766 247.526 185.537 241.866 185.483ZM241.866 213.858C238.866 213.858 235.308 213.189 232.701 209.903C230.537 207.236 230.143 204.168 230.143 201.553C230.143 198.835 230.537 195.825 232.701 193.157C235.308 189.809 238.866 189.15 241.866 189.15C244.915 189.15 248.421 189.809 251.085 193.157C253.254 195.825 253.641 198.835 253.641 201.553C253.641 204.168 253.254 207.236 251.085 209.903C248.421 213.191 244.913 213.858 241.866 213.858Z" fill="#00529B"/>
<path fill-rule="evenodd" clip-rule="evenodd" d="M94.9083 216.695L99.6889 207.89H116.526L121.687 216.695H135.294L116.859 186.364H105.578L88.8583 216.695H94.9083ZM101.907 203.78L107.633 193.212H107.8L114.017 203.78H101.907Z" fill="#00529B"/>
<path fill-rule="evenodd" clip-rule="evenodd" d="M216.285 240.999L213.589 250.959C213.256 251.357 212.737 251.691 212.269 251.94C211.542 252.334 210.823 252.543 210.158 252.543C209.497 252.543 208.912 252.279 208.643 251.873C208.448 251.54 208.253 251.018 208.513 250.09L210.954 240.999H208.448L206.085 249.763C205.885 250.561 205.554 251.94 206.275 252.997C206.676 253.591 207.537 254.254 209.301 254.254C210.032 254.254 210.759 254.125 211.684 253.727C212.272 253.384 212.924 252.995 213.458 252.599L213.067 253.987H215.3L218.804 240.999H216.286H216.285Z" fill="#00529B"/>
<path fill-rule="evenodd" clip-rule="evenodd" d="M232.315 242.5C231.718 241.712 230.99 241.319 230.858 241.248C230.02 240.8 229.087 240.721 228.286 240.721C227.433 240.721 226.377 240.799 225.2 241.514C224.34 242.116 223.29 243.031 222.902 244.553C222.549 245.671 222.692 246.526 223.091 247.059C223.549 247.656 224.341 247.978 225.009 248.174L226.253 248.581C226.903 248.712 227.569 248.712 227.959 249.228C228.157 249.499 228.367 249.833 228.23 250.486C228.027 251.079 227.642 251.472 227.307 251.738C226.849 252.141 226.053 252.478 224.936 252.478C224.214 252.478 223.618 252.329 223.028 251.998C222.505 251.609 222.105 251.277 221.904 250.956L220.25 252.478C221.441 254.041 222.899 254.251 224.34 254.251C225.322 254.251 227.305 254.122 228.956 252.867C229.87 252.079 230.535 251.078 230.804 250.224C230.934 249.554 231.064 248.579 230.739 247.974C230.271 247.055 229.219 246.661 228.624 246.523L227.701 246.257C226.525 245.99 225.993 245.863 225.727 245.531C225.471 245.343 225.264 244.943 225.471 244.152C225.589 243.826 225.865 243.289 226.38 242.896C227.039 242.496 227.646 242.435 228.102 242.435C228.692 242.435 229.219 242.573 229.685 242.896C230.081 243.156 230.403 243.494 230.669 243.826L232.315 242.498V242.5Z" fill="#00529B"/>
<path fill-rule="evenodd" clip-rule="evenodd" d="M245.824 242.5C245.294 241.712 244.574 241.319 244.378 241.248C243.592 240.8 242.658 240.721 241.876 240.721C240.967 240.721 239.967 240.799 238.78 241.514C237.923 242.116 236.868 243.031 236.408 244.553C236.157 245.671 236.278 246.526 236.674 247.059C237.134 247.656 237.999 247.978 238.583 248.174L239.766 248.581C240.424 248.712 241.091 248.712 241.547 249.228C241.746 249.499 241.941 249.833 241.746 250.486C241.547 251.079 241.158 251.472 240.885 251.738C240.423 252.141 239.639 252.478 238.515 252.478C237.792 252.478 237.204 252.329 236.542 251.998C236.009 251.609 235.681 251.277 235.42 250.956L233.772 252.478C235.039 254.041 236.481 254.251 237.923 254.251C238.918 254.251 240.884 254.122 242.539 252.867C243.46 252.079 244.12 251.078 244.317 250.224C244.516 249.554 244.577 248.579 244.252 247.974C243.857 247.055 242.799 246.661 242.149 246.523L241.219 246.257C240.094 245.99 239.583 245.863 239.307 245.531C239.051 245.343 238.856 244.943 239.051 244.152C239.181 243.826 239.379 243.289 239.972 242.896C240.57 242.496 241.222 242.435 241.614 242.435C242.282 242.435 242.802 242.573 243.266 242.896C243.667 243.156 243.988 243.494 244.254 243.826L245.826 242.498L245.824 242.5Z" fill="#00529B"/>
<path fill-rule="evenodd" clip-rule="evenodd" d="M250.655 240.999L250.188 242.704H251.702L248.686 253.987H251.178L254.667 240.999H250.655ZM252.239 236.71C252.028 237.626 252.568 238.352 253.432 238.352C254.349 238.352 255.198 237.625 255.462 236.71C255.719 235.842 255.198 235.123 254.274 235.123C253.432 235.123 252.504 235.841 252.239 236.71Z" fill="#00529B"/>
<path fill-rule="evenodd" clip-rule="evenodd" d="M275.123 253.987L277.896 243.761C278.765 243.03 280.078 242.438 281.258 242.438C282.116 242.438 282.586 242.766 282.773 243.159C283.172 243.762 282.976 244.742 282.836 245.143L280.468 253.987H282.974L285.342 245.346C285.613 244.284 285.736 243.031 285.145 241.979C284.614 241.124 283.635 240.722 282.245 240.722C281.397 240.722 279.947 240.922 278.357 241.979L278.626 240.998H274.599L274.146 242.703H275.658L272.631 253.986H275.122L275.123 253.987Z" fill="#00529B"/>
<path fill-rule="evenodd" clip-rule="evenodd" d="M192.73 235.255L187.663 253.987H190.489L192.678 245.75H194.575L197.217 253.987H200.633L197.607 245.607C198.996 245.464 200.843 244.813 201.956 243.956C203.199 243.031 204.136 241.712 204.449 240.327C204.85 239 204.665 237.625 203.877 236.71C202.816 235.383 200.706 235.255 199.19 235.255H192.73ZM197.416 243.619H193.265L194.917 237.426H198.675C199.072 237.426 200.312 237.426 200.976 238.086C201.366 238.484 201.699 239.143 201.426 240.197C201.166 241.188 200.634 241.981 199.853 242.641C198.999 243.293 198.07 243.563 197.417 243.62L197.416 243.619Z" fill="#00529B"/>
<path fill-rule="evenodd" clip-rule="evenodd" d="M262.933 246.4C260.301 246.665 258.121 247.719 257.401 250.431C257.333 250.748 257.267 251.019 257.267 251.281V251.741C257.332 253.196 258.319 254.256 260.492 254.256C261.279 254.256 262.071 254.127 262.933 253.779C263.005 253.779 263.067 253.729 263.192 253.662C264.052 253.263 264.699 252.6 264.909 252.405H265.039L264.588 253.989H266.825L269.127 245.608C269.461 244.285 269.78 242.965 269.055 241.98C268.459 241.056 266.951 240.723 265.773 240.723C264.643 240.723 263.656 240.861 262.933 241.056C260.637 241.644 259.769 243.034 259.703 244.285L262.016 244.419C262.203 243.764 262.476 243.295 262.934 242.967C263.465 242.578 264.254 242.44 265.242 242.44C265.774 242.44 266.425 242.501 266.687 242.967C267.09 243.432 266.954 244.091 266.825 244.69L266.36 246.335H264.515C263.983 246.333 263.403 246.333 262.936 246.4H262.933ZM262.933 252.332C262.536 252.481 262.142 252.542 261.742 252.542C261.227 252.542 260.564 252.481 260.171 251.939C259.843 251.474 259.769 251.017 259.973 250.354C260.103 249.833 260.363 249.301 261.02 248.777C261.414 248.51 261.943 248.176 262.933 248.056C263.258 247.978 263.656 247.918 264.127 247.918H265.971L265.243 250.682C264.844 251.214 264.451 251.541 263.981 251.873C263.595 252.084 263.258 252.278 262.933 252.332Z" fill="#00529B"/>
<path fill-rule="evenodd" clip-rule="evenodd" d="M323.095 240.999L322.639 242.704H324.154L321.115 253.987H323.622L327.11 240.999H323.095ZM325.413 236.71C325.206 237.626 325.734 238.352 326.599 238.352C327.444 238.352 328.369 237.625 328.63 236.71C328.901 235.842 328.369 235.123 327.444 235.123C326.597 235.123 325.656 235.841 325.413 236.71Z" fill="#00529B"/>
<path fill-rule="evenodd" clip-rule="evenodd" d="M332.649 240.999L329.164 253.987H331.669L333.646 246.527C333.972 245.672 334.296 244.815 334.766 244.155C335.555 242.899 336.468 242.704 337.006 242.704C337.335 242.704 337.722 242.765 337.993 243.032C338.178 243.236 338.256 243.619 338.256 244.089L340.496 243.43C340.947 242.116 340.496 241.38 339.71 240.998C339.3 240.799 338.845 240.721 338.385 240.721C336.935 240.721 335.497 241.514 334.497 242.898L335.02 240.998H332.652V240.999H332.649Z" fill="#00529B"/>
<path fill-rule="evenodd" clip-rule="evenodd" d="M346.495 234.988L342.35 250.43C342.029 251.61 341.427 253.988 344.398 253.988H345.843L346.301 252.277H345.585C344.336 252.277 344.659 251.212 344.717 250.958L349.005 234.988H346.495Z" fill="#00529B"/>
<path fill-rule="evenodd" clip-rule="evenodd" d="M353.269 240.999L352.826 242.704H354.346L351.236 253.987H353.806L357.302 240.999H353.269ZM355.58 236.71C355.377 237.626 355.908 238.352 356.766 238.352C357.692 238.352 358.55 237.625 358.808 236.71C359.006 235.842 358.475 235.123 357.63 235.123C356.701 235.123 355.851 235.841 355.58 236.71Z" fill="#00529B"/>
<path fill-rule="evenodd" clip-rule="evenodd" d="M362.476 253.987L365.173 243.761C366.095 243.03 367.415 242.438 368.593 242.438C369.452 242.438 369.921 242.766 370.112 243.159C370.572 243.762 370.246 244.742 370.18 245.143L367.815 253.987H370.309L372.681 245.346C372.946 244.284 373.079 243.031 372.483 241.979C371.967 241.124 370.968 240.722 369.592 240.722C368.666 240.722 367.347 240.922 365.705 241.979L365.966 240.998H361.95L361.485 242.703H362.997L359.975 253.987H362.476Z" fill="#00529B"/>
<path fill-rule="evenodd" clip-rule="evenodd" d="M401.148 242.5C400.627 241.712 399.969 241.319 399.759 241.248C398.905 240.8 398.062 240.721 397.265 240.721C396.33 240.721 395.352 240.799 394.174 241.514C393.248 242.116 392.193 243.031 391.801 244.553C391.456 245.671 391.667 246.526 392.054 247.059C392.455 247.656 393.311 247.978 393.906 248.174L395.158 248.581C395.808 248.712 396.482 248.712 396.855 249.228C397.134 249.499 397.265 249.833 397.134 250.486C396.944 251.079 396.548 251.472 396.211 251.738C395.809 252.141 395.022 252.478 393.84 252.478C393.099 252.478 392.579 252.329 391.92 251.998C391.399 251.609 391.01 251.277 390.807 250.956L389.161 252.478C390.344 254.041 391.801 254.251 393.247 254.251C394.299 254.251 396.211 254.122 397.857 252.867C398.785 252.079 399.428 251.078 399.702 250.224C399.9 249.554 399.969 248.579 399.648 247.974C399.243 247.055 398.114 246.661 397.536 246.523L396.603 246.257C395.499 245.99 394.959 245.863 394.634 245.531C394.427 245.343 394.174 244.943 394.367 244.152C394.498 243.826 394.684 243.289 395.292 242.896C395.943 242.496 396.601 242.435 397.005 242.435C397.661 242.435 398.115 242.573 398.639 242.896C398.976 243.156 399.3 243.494 399.567 243.826L401.148 242.498V242.5Z" fill="#00529B"/>
<path fill-rule="evenodd" clip-rule="evenodd" d="M300.866 253.987H303.699L306.533 249.428H313.708L314.04 253.987H317.269L315.495 235.255H313.187L300.867 253.987H300.866ZM307.85 247.259L312.918 239.275H312.98L313.585 247.259H307.85Z" fill="#00529B"/>
<path fill-rule="evenodd" clip-rule="evenodd" d="M379.097 248.055H386.922L387.129 247.196C387.653 245.464 388.174 243.69 387.264 242.246C386.471 241 384.889 240.722 383.764 240.722C382.096 240.722 380.495 241.32 379.223 242.438C377.503 243.956 376.795 245.994 376.396 247.718C376.001 249.105 375.599 251.211 376.652 252.734C377.638 254.043 379.429 254.252 380.672 254.252C381.68 254.252 382.613 254.108 383.58 253.776C384.098 253.588 384.754 253.321 385.346 252.994L384.962 251.472C384.358 251.739 383.904 251.937 383.241 252.079C382.627 252.19 382.047 252.328 381.39 252.328C380.411 252.328 379.548 251.996 379.096 251.414C378.365 250.555 378.699 249.225 378.901 248.576L379.097 248.055ZM379.487 246.332L379.617 245.75C379.889 245.076 380.214 244.022 381.059 243.293C381.616 242.751 382.47 242.438 383.241 242.438C383.904 242.438 384.553 242.639 384.889 243.032C385.474 243.83 385.21 244.948 384.962 245.807L384.819 246.334H379.487V246.332Z" fill="#00529B"/>
<defs>
<linearGradient id="paint0_linear_14_68" x1="-3628.92" y1="4194.48" x2="-3606.4" y2="4215.44" gradientUnits="userSpaceOnUse">
<stop stop-color="#C4161C"/>
<stop offset="0.01" stop-color="#C4161C"/>
<stop offset="0.3" stop-color="#C93627"/>
<stop offset="0.5" stop-color="#EBB39E"/>
<stop offset="0.72" stop-color="#C93627"/>
<stop offset="1" stop-color="#C4161C"/>
</linearGradient>
<linearGradient id="paint1_linear_14_68" x1="-1976.51" y1="2427.6" x2="-1962.93" y2="2440.24" gradientUnits="userSpaceOnUse">
<stop stop-color="#00529B"/>
<stop offset="0.11" stop-color="#00529B"/>
<stop offset="0.5" stop-color="#778EC1"/>
<stop offset="0.52" stop-color="#728ABF"/>
<stop offset="0.73" stop-color="#3C69AA"/>
<stop offset="0.88" stop-color="#00589F"/>
<stop offset="0.96" stop-color="#00529B"/>
<stop offset="1" stop-color="#00529B"/>
</linearGradient>
<linearGradient id="paint2_linear_14_68" x1="-648.417" y1="1513.17" x2="-640.38" y2="1518.18" gradientUnits="userSpaceOnUse">
<stop stop-color="#C4161C"/>
<stop offset="0.01" stop-color="#C4161C"/>
<stop offset="0.49" stop-color="#C93627"/>
<stop offset="1" stop-color="#EBB39E"/>
</linearGradient>
<linearGradient id="paint3_linear_14_68" x1="-2376.01" y1="3406.55" x2="-2352.34" y2="3425.1" gradientUnits="userSpaceOnUse">
<stop stop-color="white"/>
<stop offset="0.3" stop-color="white"/>
<stop offset="0.51" stop-color="#D4D9EC"/>
<stop offset="0.7" stop-color="white"/>
<stop offset="1" stop-color="white"/>
</linearGradient>
</defs>
</svg>
