<svg width="446" height="127" viewBox="0 0 446 127" fill="none" xmlns="http://www.w3.org/2000/svg">
<path fill-rule="evenodd" clip-rule="evenodd" d="M16.8581 88.5137L13.3949 86.9962L27.7598 85.2429C28.0153 85.6579 28.2629 86.025 28.5528 86.4144L16.8581 88.5137ZM55.4166 88.5137L58.8842 86.9039L44.6004 85.1984C44.4749 85.6579 44.0962 86.025 43.8396 86.4144L55.4166 88.5137ZM53.3329 88.754L48.98 90.2147L42.7944 88.3346L42.2579 88.1666C42.4645 88.0042 42.6323 87.8406 42.7944 87.6203C43.0554 87.4168 43.2643 87.1197 43.5086 86.905L53.3329 88.7551V88.754ZM64.8188 84.6956L60.8435 86.5412L44.9725 84.6956C45.1025 84.324 45.228 83.9458 45.3457 83.5608L64.8188 84.6956ZM66.2372 84.1438L71.4198 80.8485H43.3487C43.3487 82.0233 43.1787 83.0302 42.7933 83.899C41.717 86.7003 39.0036 88.0431 36.2867 88.003C33.6188 87.9252 30.8976 86.5423 29.6869 83.9869C29.2637 83.0569 29.0171 82.0712 29.0171 80.8497H0.857178L5.99534 84.1449L27.5099 83.0302C27.9253 84.5687 28.6883 85.9126 29.6869 86.9028C31.404 88.7117 33.8587 89.7085 36.2867 89.7085C38.6703 89.7586 41.0872 88.8819 42.7933 86.954C43.7185 85.9527 44.4272 84.6544 44.8492 83.0947L66.236 84.1449L66.2372 84.1438ZM42.7933 92.6889L43.3487 93.6946L42.7933 93.9482L41.3383 94.6191L39.67 91.3083C38.6226 91.6754 37.4641 91.8857 36.2867 91.9302C35.0316 91.9758 33.731 91.7989 32.6036 91.4295L31.1908 94.6191C30.7265 94.6547 30.1012 94.6191 29.6869 94.3187C29.4725 94.1896 29.2637 93.985 29.1804 93.6957L29.6869 92.8524L30.8976 90.6797C30.5166 90.4238 30.1867 90.257 29.8457 89.9243L30.852 88.7117C32.5725 89.7608 34.4474 90.3382 36.289 90.3382C38.1294 90.3838 39.9588 89.7964 41.6726 88.5849L42.7944 88.9186L43.2643 89.0922L42.7944 89.4638C42.4657 89.7964 42.1758 90.1301 41.6382 90.4238L42.7944 92.6889H42.7933ZM42.7933 75.5675C43.8818 76.8625 44.6826 78.4622 45.1014 80.3012H43.3076C43.1776 79.7594 43.0099 79.2121 42.7922 78.7114C41.5948 75.5319 39.1224 73.2735 36.2856 71.3901L35.1971 70.7192L36.2856 71.0964C38.8692 72.141 41.1683 73.5661 42.7933 75.5675ZM37.9484 87.3745C38.4204 87.2922 39.1246 87.0363 39.67 86.618L36.8221 80.9709L39.7899 79.5514L37.2897 77.3798L36.2867 77.8348L31.9794 79.7961L33.2434 82.6408L35.2815 81.7263L37.9484 87.3734V87.3745ZM30.1867 88.1666C30.0168 88.0442 29.8457 87.8807 29.6869 87.7483C29.3526 87.4568 29.0538 87.1598 28.8583 86.8694L19.0373 88.725L23.217 90.1313L30.1867 88.1666ZM27.5099 84.6967C27.3444 84.3251 27.2244 83.9469 27.0945 83.5619L7.45926 84.6967L11.4278 86.618L27.5099 84.6967Z" fill="#00529B"/>
<path fill-rule="evenodd" clip-rule="evenodd" d="M150.886 116.947C157.362 117.969 169.769 119.573 184.962 119.907C200.126 120.29 217.952 119.402 234.799 116.881C251.644 114.432 267.434 110.319 278.647 105.883C289.945 101.62 296.263 96.4243 296.234 96.4043C296.295 96.4354 289.712 102.444 277.744 107.602C265.899 112.957 249.175 118.092 231.565 121.41C213.973 124.82 195.522 126.377 180.512 126.47C165.506 126.644 153.847 125.289 149.762 124.647C135.642 122.54 125.386 118.821 119.126 115.239C112.807 111.631 110.702 108.371 111.361 107.737C112.06 106.985 115.206 108.507 121.578 110.482C127.957 112.483 137.667 114.981 150.887 116.949L150.886 116.947Z" fill="#F47920"/>
<path fill-rule="evenodd" clip-rule="evenodd" d="M420.616 10.1134L418.211 10.4194L416.669 10.5662C413.776 10.8177 409.411 11.1892 405.558 13.6467C401.737 16.0887 397.359 21.1895 394.3 25.1144C361.121 30.6791 342.931 50.3693 330.894 63.4144L323.349 72.2343L324.613 71.8405C347.223 50.9444 367.388 39.7682 386.271 37.6779L386.55 37.6467L389.065 34.3604L394.357 27.4095C396.532 25.4459 399.543 24.7528 403.974 24.2455L411.709 23.7505L420.863 23.1074C426.092 22.4066 430.584 21.1995 436.748 12.7178L445.143 1.36808L444.159 0.513672C436.456 8.15655 428.043 9.19452 420.617 10.1101L420.616 10.1134ZM420.775 11.4106C427.208 10.6185 434.347 9.47375 441.235 4.45526C438.75 7.81835 435.693 11.9513 435.693 11.9513C429.819 20.0303 425.771 21.1361 420.688 21.8147C420.688 21.8192 411.653 22.4466 411.653 22.4466L403.827 22.9539C400.521 23.3277 398.116 24.0319 396.004 25.0855C398.947 21.3753 402.851 16.9342 406.267 14.7526C409.843 12.463 414.015 12.1115 416.777 11.8701L418.386 11.711L420.774 11.4106H420.775ZM393.28 26.6852C392.686 27.4529 388.029 33.5683 388.029 33.5683L385.836 36.4363C369.705 38.2964 352.675 46.7069 334.078 61.9192C345.829 49.2768 363.248 32.1276 393.28 26.6852Z" fill="black"/>
<path fill-rule="evenodd" clip-rule="evenodd" d="M324.186 71.3898C348.18 53.8257 361.08 46.8514 389.581 46.5967L383.44 54.8915C382.284 57.3523 380.492 57.2411 378.603 57.1276C358.228 56.9652 343.996 58.4871 319.243 76.4907L324.186 71.3898Z" fill="url(#paint0_linear_0_1)"/>
<path fill-rule="evenodd" clip-rule="evenodd" d="M324.171 71.362C348.316 49.0475 368.474 38.9961 386.199 37.0347C387.768 34.9555 393.181 27.989 394.822 25.6694C354.418 32.2766 336.555 59.6663 324.171 71.362Z" fill="white"/>
<path fill-rule="evenodd" clip-rule="evenodd" d="M325.411 70.085C324.932 70.5444 323.266 72.3433 322.788 72.7728C336.957 62.3075 348.824 51.4139 378.379 47.3866C379.852 45.7156 384.15 40.053 386.176 37.0337C359.232 40.7027 341.611 55.7682 325.411 70.085Z" fill="url(#paint1_linear_0_1)"/>
<path fill-rule="evenodd" clip-rule="evenodd" d="M382.905 55.8484C383.165 54.9339 383.802 54.2542 380.806 52.4853C377.282 50.406 376.063 51.2805 376.843 49.1656C377.423 47.5603 384.992 44.3663 390.516 46.2408C390.517 46.2419 385.615 51.9302 382.905 55.8484Z" fill="url(#paint2_linear_0_1)"/>
<path fill-rule="evenodd" clip-rule="evenodd" d="M404.131 23.0563C398.604 23.7973 395.119 25.1768 392.905 27.9714L385.188 38.3243C386.87 36.818 391.957 36.0759 397.468 35.9335L398.24 35.9491L398.942 35.9335L401.403 35.8557C409.219 35.5497 420.071 34.445 426.406 27.0502L435.9 13.9027L437.036 12.3374C428.791 23.2143 409.978 22.2743 404.133 23.0552L404.131 23.0563Z" fill="#00529B"/>
<path fill-rule="evenodd" clip-rule="evenodd" d="M408.714 34.5615C402.785 35.3925 396.004 35.6395 394.06 35.7374C390.738 35.8842 386.323 36.9466 385.101 38.4296C381.377 43.0654 377.811 47.3875 376.845 49.1675C379.12 47.0615 386.605 47.2918 395.688 46.8724C404.762 46.4574 413.955 42.528 421.205 34.2499L426.713 26.626C423.025 31.3641 416.529 33.4679 408.714 34.5615Z" fill="#C4161C"/>
<path fill-rule="evenodd" clip-rule="evenodd" d="M418.298 11.0646C415.884 11.3906 410.44 11.3038 405.912 14.2007C401.376 17.0977 395.915 23.9718 393.23 27.5908C395.725 24.9174 399.038 24.1565 403.9 23.6047C408.76 23.0429 415.782 23.1397 420.774 22.4644C425.569 21.8258 430.028 20.8613 436.218 12.3406L444.616 0.985352C435.911 9.62169 426.404 9.97991 418.297 11.0646H418.298Z" fill="url(#paint3_linear_0_1)"/>
<path fill-rule="evenodd" clip-rule="evenodd" d="M61.6788 53.0814V44.3972H78.0152V39.8349H61.6788V31.9284H78.8982V27.3638H49.572V57.695H79.8512V53.0814H61.6788Z" fill="#00529B"/>
<path fill-rule="evenodd" clip-rule="evenodd" d="M97.5637 57.6954V31.9299H104.678C106.844 31.9299 108.845 32.0923 110.672 33.3138C112.001 34.2606 112.836 35.6078 112.836 37.2799C112.836 38.675 112.341 40.1112 110.508 41.2749C108.119 42.8335 103.957 43.0482 101.346 42.7323L99.8473 42.5532L111.905 57.6954H125.896L114.452 45.0585C116.502 44.8338 119.789 44.0172 121.783 42.7345C124.17 41.1125 125.39 38.7206 125.39 36.49C125.39 33.9914 124.05 31.2724 121.009 29.4846C117.39 27.4298 112.453 27.3687 107.899 27.3687H85.4036V57.6976H97.5637V57.6954Z" fill="#00529B"/>
<path fill-rule="evenodd" clip-rule="evenodd" d="M195.328 40.3303V31.9298H212.994V27.3652H183.229V57.6964H195.328V44.896H211.661V40.3314L195.328 40.3303Z" fill="#00529B"/>
<path fill-rule="evenodd" clip-rule="evenodd" d="M217.383 27.3638V57.695H247.386V53.0814H229.55V27.3649L217.383 27.3638Z" fill="#00529B"/>
<path fill-rule="evenodd" clip-rule="evenodd" d="M335.645 27.3638H297.378V31.9284H310.431V57.6939H322.599V31.9284H335.644V27.3638H335.645Z" fill="#00529B"/>
<path fill-rule="evenodd" clip-rule="evenodd" d="M271.604 26.4829C265.938 26.4829 257.994 27.7656 252.659 31.5926C248.429 34.5975 246.438 38.894 246.438 42.5541C246.438 46.1775 248.431 50.4651 252.659 53.4688C257.994 57.2435 265.938 58.5263 271.604 58.5263C277.264 58.5263 285.265 57.2435 290.594 53.4688C294.821 50.464 296.769 46.1764 296.769 42.5541C296.769 38.894 294.821 34.5975 290.594 31.5926C285.265 27.7656 277.264 26.5374 271.604 26.4829ZM271.604 54.8583C268.599 54.8583 265.045 54.1886 262.427 50.9034C260.263 48.2356 259.877 45.1685 259.877 42.553C259.877 39.8351 260.263 36.8247 262.427 34.1569C265.045 30.8094 268.599 30.1497 271.604 30.1497C274.65 30.1497 278.162 30.8094 280.812 34.1569C282.985 36.8247 283.378 39.8351 283.378 42.553C283.378 45.1685 282.985 48.2356 280.812 50.9034C278.162 54.1908 274.65 54.8583 271.604 54.8583Z" fill="#00529B"/>
<path fill-rule="evenodd" clip-rule="evenodd" d="M153.866 26.4829C148.205 26.4829 140.264 27.7656 134.933 31.5926C130.702 34.5975 128.702 38.894 128.702 42.5541C128.702 46.1775 130.703 50.4651 134.933 53.4688C140.264 57.2435 148.207 58.5263 153.866 58.5263C159.526 58.5263 167.532 57.2435 172.868 53.4688C177.083 50.464 179.034 46.1764 179.034 42.5541C179.034 38.894 177.083 34.5975 172.868 31.5926C167.532 27.7656 159.526 26.5374 153.866 26.4829ZM153.866 54.8583C150.866 54.8583 147.308 54.1886 144.701 50.9034C142.537 48.2356 142.143 45.1685 142.143 42.553C142.143 39.8351 142.537 36.8247 144.701 34.1569C147.308 30.8094 150.866 30.1497 153.866 30.1497C156.915 30.1497 160.421 30.8094 163.085 34.1569C165.254 36.8247 165.641 39.8351 165.641 42.553C165.641 45.1685 165.254 48.2356 163.085 50.9034C160.421 54.1908 156.913 54.8583 153.866 54.8583Z" fill="#00529B"/>
<path fill-rule="evenodd" clip-rule="evenodd" d="M6.90834 57.695L11.6889 48.8895H28.5262L33.6866 57.695H47.2939L28.8594 27.3638H17.5779L0.858276 57.695H6.90834ZM13.9069 44.78L19.6327 34.2123H19.8004L26.0171 44.78H13.9069Z" fill="#00529B"/>
<path fill-rule="evenodd" clip-rule="evenodd" d="M128.285 81.999L125.589 91.9592C125.256 92.3575 124.737 92.6913 124.269 92.9405C123.542 93.3343 122.823 93.5434 122.158 93.5434C121.497 93.5434 120.912 93.2786 120.643 92.8726C120.448 92.5399 120.253 92.0182 120.513 91.0904L122.954 81.999H120.448L118.085 90.7633C117.885 91.561 117.554 92.9404 118.275 93.9973C118.676 94.5914 119.537 95.2545 121.301 95.2545C122.032 95.2545 122.759 95.1254 123.684 94.7271C124.272 94.3845 124.924 93.9951 125.458 93.599L125.067 94.9874H127.3L130.804 81.999H128.286H128.285Z" fill="#00529B"/>
<path fill-rule="evenodd" clip-rule="evenodd" d="M144.315 83.4996C143.718 82.7119 142.99 82.3192 142.858 82.248C142.02 81.7997 141.087 81.7207 140.286 81.7207C139.433 81.7207 138.377 81.7986 137.2 82.5139C136.34 83.1158 135.29 84.0314 134.902 85.5533C134.549 86.6713 134.692 87.5257 135.091 88.0586C135.549 88.656 136.341 88.9775 137.009 89.1744L138.253 89.5805C138.903 89.7118 139.569 89.7118 139.959 90.228C140.157 90.4994 140.367 90.8332 140.23 91.4862C140.027 92.0792 139.642 92.4719 139.307 92.7378C138.849 93.1405 138.053 93.4776 136.936 93.4776C136.214 93.4776 135.618 93.3285 135.028 92.9981C134.505 92.6087 134.105 92.2772 133.904 91.9557L132.25 93.4776C133.441 95.0407 134.899 95.2509 136.34 95.2509C137.322 95.2509 139.305 95.1219 140.956 93.867C141.87 93.0793 142.535 92.0781 142.804 91.2237C142.934 90.5539 143.064 89.5794 142.739 88.9742C142.271 88.0553 141.219 87.6614 140.624 87.5235L139.701 87.2565C138.525 86.9895 137.993 86.8627 137.727 86.5311C137.471 86.3431 137.264 85.9426 137.471 85.1517C137.589 84.8257 137.865 84.2895 138.38 83.8956C139.039 83.4962 139.646 83.4351 140.102 83.4351C140.692 83.4351 141.219 83.573 141.685 83.8956C142.081 84.156 142.403 84.4942 142.669 84.8257L144.315 83.4985V83.4996Z" fill="#00529B"/>
<path fill-rule="evenodd" clip-rule="evenodd" d="M157.824 83.4996C157.294 82.7119 156.574 82.3192 156.378 82.248C155.592 81.7997 154.658 81.7207 153.876 81.7207C152.967 81.7207 151.967 81.7986 150.78 82.5139C149.923 83.1158 148.868 84.0314 148.408 85.5533C148.157 86.6713 148.278 87.5257 148.674 88.0586C149.134 88.656 149.999 88.9775 150.583 89.1744L151.766 89.5805C152.424 89.7118 153.091 89.7118 153.547 90.228C153.746 90.4994 153.941 90.8332 153.746 91.4862C153.547 92.0792 153.158 92.4719 152.885 92.7378C152.423 93.1405 151.639 93.4776 150.515 93.4776C149.792 93.4776 149.204 93.3285 148.542 92.9981C148.009 92.6087 147.681 92.2772 147.42 91.9557L145.772 93.4776C147.039 95.0407 148.481 95.2509 149.923 95.2509C150.918 95.2509 152.884 95.1219 154.539 93.867C155.46 93.0793 156.12 92.0781 156.317 91.2237C156.516 90.5539 156.577 89.5794 156.252 88.9742C155.857 88.0553 154.799 87.6614 154.149 87.5235L153.219 87.2565C152.094 86.9895 151.583 86.8627 151.307 86.5311C151.051 86.3431 150.856 85.9426 151.051 85.1517C151.181 84.8257 151.379 84.2895 151.972 83.8956C152.57 83.4962 153.222 83.4351 153.614 83.4351C154.282 83.4351 154.802 83.573 155.266 83.8956C155.667 84.156 155.988 84.4942 156.254 84.8257L157.826 83.4985L157.824 83.4996Z" fill="#00529B"/>
<path fill-rule="evenodd" clip-rule="evenodd" d="M162.655 81.9988L162.188 83.7042H163.702L160.686 94.9872H163.178L166.667 81.9988H162.655ZM164.239 77.7101C164.028 78.6257 164.568 79.3521 165.432 79.3521C166.349 79.3521 167.198 78.6246 167.462 77.7101C167.719 76.8423 167.198 76.1226 166.274 76.1226C165.432 76.1226 164.504 76.8412 164.239 77.7101Z" fill="#00529B"/>
<path fill-rule="evenodd" clip-rule="evenodd" d="M187.123 94.9871L189.896 84.761C190.765 84.0301 192.078 83.4383 193.258 83.4383C194.116 83.4383 194.586 83.7665 194.773 84.1592C195.172 84.7622 194.976 85.7423 194.836 86.1428L192.468 94.9871H194.974L197.342 86.3463C197.613 85.2839 197.736 84.0312 197.145 82.9788C196.614 82.1244 195.635 81.7217 194.245 81.7217C193.397 81.7217 191.947 81.9219 190.357 82.9788L190.626 81.9976H186.599L186.146 83.703H187.658L184.631 94.986H187.122L187.123 94.9871Z" fill="#00529B"/>
<path fill-rule="evenodd" clip-rule="evenodd" d="M104.73 76.2549L99.663 94.9872H102.489L104.678 86.7502H106.575L109.217 94.9872H112.633L109.607 86.6067C110.996 86.4643 112.843 85.8135 113.956 84.9557C115.199 84.0313 116.136 82.7118 116.449 81.3268C116.85 79.9996 116.665 78.6245 115.877 77.71C114.816 76.3828 112.706 76.2549 111.19 76.2549H104.73ZM109.416 84.6187H105.265L106.917 78.4265H110.675C111.072 78.4265 112.312 78.4265 112.976 79.0862C113.366 79.4845 113.699 80.1431 113.426 81.1966C113.166 82.1878 112.634 82.9811 111.853 83.6408C110.999 84.2927 110.07 84.563 109.417 84.6198L109.416 84.6187Z" fill="#00529B"/>
<path fill-rule="evenodd" clip-rule="evenodd" d="M174.933 87.4002C172.301 87.665 170.121 88.7185 169.401 91.4308C169.333 91.7479 169.267 92.0193 169.267 92.2808V92.7413C169.332 94.1965 170.319 95.2556 172.492 95.2556C173.279 95.2556 174.071 95.1265 174.933 94.7794C175.005 94.7794 175.067 94.7294 175.192 94.6615C176.052 94.2632 176.699 93.6002 176.909 93.4055H177.039L176.588 94.9886H178.825L181.127 86.6081C181.461 85.2854 181.78 83.9648 181.055 82.9803C180.459 82.0558 178.951 81.7231 177.773 81.7231C176.643 81.7231 175.656 81.8611 174.933 82.0558C172.637 82.6443 171.769 84.0338 171.703 85.2854L174.016 85.4189C174.203 84.7636 174.476 84.2952 174.934 83.9671C175.465 83.5777 176.254 83.4397 177.242 83.4397C177.774 83.4397 178.425 83.5009 178.687 83.9671C179.09 84.4321 178.954 85.0907 178.825 85.6903L178.36 87.3346H176.515C175.983 87.3335 175.403 87.3335 174.936 87.4002H174.933ZM174.933 93.3321C174.536 93.4812 174.142 93.5423 173.742 93.5423C173.227 93.5423 172.564 93.4812 172.171 92.9394C171.843 92.4743 171.769 92.0171 171.973 91.3541C172.103 90.8334 172.363 90.3005 173.02 89.7765C173.414 89.5095 173.943 89.1758 174.933 89.0556C175.258 88.9777 175.656 88.9177 176.127 88.9177H177.971L177.243 91.6822C176.844 92.214 176.451 92.5411 175.981 92.8726C175.595 93.084 175.258 93.2776 174.933 93.3321Z" fill="#00529B"/>
<path fill-rule="evenodd" clip-rule="evenodd" d="M235.095 81.9988L234.639 83.7042H236.154L233.115 94.9872H235.622L239.11 81.9988H235.095ZM237.413 77.7101C237.206 78.6257 237.734 79.3521 238.599 79.3521C239.444 79.3521 240.369 78.6246 240.63 77.7101C240.901 76.8423 240.369 76.1226 239.444 76.1226C238.597 76.1226 237.656 76.8412 237.413 77.7101Z" fill="#00529B"/>
<path fill-rule="evenodd" clip-rule="evenodd" d="M244.649 81.9988L241.164 94.9873H243.669L245.646 87.5268C245.972 86.6724 246.296 85.8147 246.766 85.155C247.555 83.899 248.468 83.7043 249.006 83.7043C249.335 83.7043 249.722 83.7655 249.993 84.0325C250.178 84.2361 250.256 84.6188 250.256 85.0894L252.496 84.4296C252.947 83.1158 252.496 82.3804 251.71 81.9977C251.3 81.7986 250.845 81.7207 250.385 81.7207C248.935 81.7207 247.497 82.5139 246.497 83.8979L247.02 81.9977H244.652V81.9988H244.649Z" fill="#00529B"/>
<path fill-rule="evenodd" clip-rule="evenodd" d="M258.495 75.9883L254.35 91.4298C254.029 92.6101 253.427 94.9875 256.398 94.9875H257.843L258.301 93.2765H257.585C256.336 93.2765 256.659 92.2119 256.717 91.9582L261.005 75.9883H258.495Z" fill="#00529B"/>
<path fill-rule="evenodd" clip-rule="evenodd" d="M265.269 81.9988L264.826 83.7042H266.346L263.236 94.9872H265.806L269.302 81.9988H265.269ZM267.58 77.7101C267.377 78.6257 267.908 79.3521 268.766 79.3521C269.692 79.3521 270.55 78.6246 270.808 77.7101C271.006 76.8423 270.475 76.1226 269.63 76.1226C268.701 76.1226 267.851 76.8412 267.58 77.7101Z" fill="#00529B"/>
<path fill-rule="evenodd" clip-rule="evenodd" d="M274.476 94.9871L277.173 84.761C278.095 84.0301 279.415 83.4383 280.593 83.4383C281.452 83.4383 281.921 83.7665 282.112 84.1592C282.572 84.7622 282.246 85.7423 282.18 86.1428L279.815 94.9871H282.309L284.681 86.3463C284.946 85.2839 285.079 84.0312 284.483 82.9788C283.967 82.1244 282.968 81.7217 281.592 81.7217C280.666 81.7217 279.347 81.9219 277.705 82.9788L277.966 81.9976H273.95L273.485 83.703H274.997L271.975 94.9871H274.476Z" fill="#00529B"/>
<path fill-rule="evenodd" clip-rule="evenodd" d="M313.148 83.4996C312.627 82.7119 311.969 82.3192 311.759 82.248C310.905 81.7997 310.062 81.7207 309.265 81.7207C308.33 81.7207 307.352 81.7986 306.174 82.5139C305.248 83.1158 304.193 84.0314 303.801 85.5533C303.456 86.6713 303.667 87.5257 304.054 88.0586C304.455 88.656 305.311 88.9775 305.906 89.1744L307.158 89.5805C307.808 89.7118 308.482 89.7118 308.855 90.228C309.134 90.4994 309.265 90.8332 309.134 91.4862C308.944 92.0792 308.548 92.4719 308.211 92.7378C307.809 93.1405 307.022 93.4776 305.84 93.4776C305.099 93.4776 304.579 93.3285 303.92 92.9981C303.399 92.6087 303.01 92.2772 302.807 91.9557L301.161 93.4776C302.344 95.0407 303.801 95.2509 305.247 95.2509C306.299 95.2509 308.211 95.1219 309.857 93.867C310.785 93.0793 311.428 92.0781 311.702 91.2237C311.9 90.5539 311.969 89.5794 311.648 88.9742C311.243 88.0553 310.114 87.6614 309.536 87.5235L308.603 87.2565C307.499 86.9895 306.959 86.8627 306.634 86.5311C306.427 86.3431 306.174 85.9426 306.367 85.1517C306.498 84.8257 306.684 84.2895 307.292 83.8956C307.943 83.4962 308.601 83.4351 309.005 83.4351C309.661 83.4351 310.115 83.573 310.639 83.8956C310.976 84.156 311.3 84.4942 311.567 84.8257L313.148 83.4985V83.4996Z" fill="#00529B"/>
<path fill-rule="evenodd" clip-rule="evenodd" d="M212.866 94.9872H215.699L218.533 90.4281H225.708L226.04 94.9872H229.269L227.495 76.2549H225.187L212.867 94.9872H212.866ZM219.85 88.2588L224.918 80.2755H224.98L225.585 88.2588H219.85Z" fill="#00529B"/>
<path fill-rule="evenodd" clip-rule="evenodd" d="M291.097 89.0553H298.922L299.129 88.1964C299.653 86.4643 300.174 84.6898 299.264 83.2458C298.471 81.9998 296.889 81.7217 295.764 81.7217C294.096 81.7217 292.495 82.3202 291.223 83.4383C289.503 84.9557 288.795 86.9938 288.396 88.7182C288.001 90.1055 287.599 92.2114 288.652 93.7345C289.638 95.0428 291.429 95.2519 292.672 95.2519C293.68 95.2519 294.613 95.1084 295.58 94.7758C296.098 94.5878 296.754 94.3207 297.346 93.9937L296.962 92.4718C296.358 92.7388 295.904 92.9368 295.241 93.0792C294.627 93.1904 294.047 93.3284 293.39 93.3284C292.411 93.3284 291.548 92.9958 291.096 92.4139C290.365 91.5551 290.699 90.2245 290.901 89.5759L291.097 89.0553ZM291.487 87.332L291.617 86.7502C291.889 86.076 292.214 85.0225 293.059 84.2927C293.616 83.7509 294.47 83.4383 295.241 83.4383C295.904 83.4383 296.553 83.6385 296.889 84.0323C297.474 84.83 297.21 85.9481 296.962 86.8069L296.819 87.3342H291.487V87.332Z" fill="#00529B"/>
<defs>
<linearGradient id="paint0_linear_0_1" x1="-3716.92" y1="4035.48" x2="-3694.4" y2="4056.44" gradientUnits="userSpaceOnUse">
<stop stop-color="#C4161C"/>
<stop offset="0.01" stop-color="#C4161C"/>
<stop offset="0.3" stop-color="#C93627"/>
<stop offset="0.5" stop-color="#EBB39E"/>
<stop offset="0.72" stop-color="#C93627"/>
<stop offset="1" stop-color="#C4161C"/>
</linearGradient>
<linearGradient id="paint1_linear_0_1" x1="-2064.51" y1="2268.6" x2="-2050.93" y2="2281.24" gradientUnits="userSpaceOnUse">
<stop stop-color="#00529B"/>
<stop offset="0.11" stop-color="#00529B"/>
<stop offset="0.5" stop-color="#778EC1"/>
<stop offset="0.52" stop-color="#728ABF"/>
<stop offset="0.73" stop-color="#3C69AA"/>
<stop offset="0.88" stop-color="#00589F"/>
<stop offset="0.96" stop-color="#00529B"/>
<stop offset="1" stop-color="#00529B"/>
</linearGradient>
<linearGradient id="paint2_linear_0_1" x1="-736.417" y1="1354.17" x2="-728.38" y2="1359.18" gradientUnits="userSpaceOnUse">
<stop stop-color="#C4161C"/>
<stop offset="0.01" stop-color="#C4161C"/>
<stop offset="0.49" stop-color="#C93627"/>
<stop offset="1" stop-color="#EBB39E"/>
</linearGradient>
<linearGradient id="paint3_linear_0_1" x1="-2464.01" y1="3247.55" x2="-2440.34" y2="3266.1" gradientUnits="userSpaceOnUse">
<stop stop-color="white"/>
<stop offset="0.3" stop-color="white"/>
<stop offset="0.51" stop-color="#D4D9EC"/>
<stop offset="0.7" stop-color="white"/>
<stop offset="1" stop-color="white"/>
</linearGradient>
</defs>
</svg>
