<svg width="42" height="42" viewBox="0 0 42 42" fill="none" xmlns="http://www.w3.org/2000/svg">
<g clip-path="url(#clip0_197_2)">
<path d="M0.559233 29.1959L19.6506 10.105C20.0085 9.74699 20.4942 9.5459 21.0005 9.5459C21.5069 9.5459 21.9925 9.74712 22.3505 10.1051L41.4409 29.196C42.1865 29.9416 42.1865 31.1503 41.4409 31.8959C40.6955 32.6413 39.4866 32.6414 38.7411 31.8959L21.0005 14.155L3.25907 31.8959C2.88629 32.2687 2.39769 32.455 1.90909 32.455C1.42049 32.455 0.931886 32.2687 0.559105 31.8958C-0.186332 31.1502 -0.186331 29.9415 0.559233 29.1959Z" fill="#FF9500"/>
</g>
<defs>
<clipPath id="clip0_197_2">
<rect width="42" height="42" fill="white" transform="matrix(-1 0 0 1 42 0)"/>
</clipPath>
</defs>
</svg>
