<svg width="227" height="69" viewBox="0 0 227 69" fill="none" xmlns="http://www.w3.org/2000/svg">
<path d="M103.362 53.6834C98.9855 52.6405 94.6339 51.5594 90.1758 50.8742C68.0819 47.4836 45.5976 50.2135 23.3699 49.1925C17.7134 48.9332 4.2463 47.1887 0.749169 42.4276C-0.342831 40.937 -0.192681 39.5201 0.885669 38.0651C2.44723 35.9575 3.76855 36.4189 6.14638 36.3342L7.90867 33.7789H5C10.7876 30.9343 18.9146 29.6212 25.2728 28.8022C48.6607 28.3217 96.1845 26.9294 127.762 24.1584C142.537 22.8617 150.962 20.4101 155.876 18.7721C171.767 13.4759 185.079 -0.332405 184.874 0.00611471C183.741 1.88435 179.108 6.14862 177.296 7.8303C160.828 23.1265 140.293 28.1524 117.656 29.6921L31.4344 33.7789C26.6978 34.4014 21.4808 34.9911 17.1019 36.984C10.8256 39.8423 13.6375 42.9381 19.1384 43.465C29.3841 44.4451 53.0177 43.7107 53.4737 43.7271C68.5269 44.3222 85.8405 46.1677 99.8645 51.8434C101.006 52.3047 102.507 52.8207 103.356 53.6806L103.362 53.6834ZM6.67327 36.3861H11.2952C11.5572 36.3861 12.6711 34.5215 12.5864 34.1502L12.2425 33.7789H8.68801L6.67327 36.3861Z" fill="#FBFBFB"/>
<path d="M158.823 35L158.348 49.3332L163.474 35H167.889L167.413 49.3332L172.243 35.4185L176 35L169.2 52.9962H164.546L164.904 38.3289L160.261 52.4241C160.157 52.6237 159.772 53 159.654 53H155.239L155 35H158.818H158.823Z" fill="#FAFAFA"/>
<path d="M213.756 40.5448C212.558 44.5961 211.905 48.8576 210.556 52.8652C208.476 59.0378 203.379 58.3798 197.878 57.6045L198.362 55.2431C202.331 55.972 206.079 56.7091 207.119 51.7978L204.43 52.9007C198.072 54.3913 198.012 48.7702 200.008 44.4487C202.661 38.7047 208.561 40.0479 213.756 40.542V40.5448ZM209.251 42.4394C207.436 42.4476 205.913 42.0817 204.646 43.6378C203.808 44.667 202.571 48.3362 202.959 49.5592C203.518 51.331 206.532 50.714 207.365 49.6739C208.261 48.5546 208.64 43.9818 209.251 42.4394Z" fill="#FAFAFA"/>
<path d="M143.609 40.3045C143.942 40.6185 141.395 47.7247 141.452 49.1961C141.537 51.3446 144.572 50.6103 145.634 49.5592C146.672 48.53 147.444 42.0408 148.11 40.3072H152.14C151.089 44.0965 150.344 48.1806 149.178 51.9179C146.95 59.0541 142.618 58.4727 136.025 57.6045L136.5 55.2349C140.376 55.9938 145.025 56.7118 145.151 51.4456C143.202 53.5423 137.48 54.263 137.297 50.3427C137.237 49.0241 138.989 42.6359 139.503 41.058C139.596 40.7686 139.68 40.4983 139.937 40.3072H143.609V40.3045Z" fill="#FAFAFA"/>
<path d="M120.857 39.3599C118.905 38.631 113.224 37.7001 112.612 40.4792C112.009 43.2119 115.782 42.8298 117.597 43.6897C119.879 44.7708 119.877 46.3323 119.271 48.5546C117.603 54.6889 110.344 53.5614 105.454 52.868L106.183 50.0451C108.558 50.1762 113.259 51.7732 114.804 49.3053C116.628 46.3869 111.902 46.3897 110.193 45.6444C107.873 44.6288 107.772 42.7752 108.411 40.5448C109.74 35.9119 114.815 35.7836 118.853 36.0375C119.333 36.0676 121.452 36.2859 121.515 36.6299L120.854 39.3681L120.857 39.3599Z" fill="#FBFBFB"/>
<path d="M129.391 35.0929L126.786 45.7563L133.063 40.3045H137.209C137.308 40.7468 137.062 40.7631 136.814 40.9761C134.815 42.6905 132.577 44.2221 130.556 45.9147C130.363 46.8374 133.939 51.8251 134.365 53.1028H129.98C128.673 51.4975 127.917 49.4473 126.896 47.6455C126.762 47.408 126.898 47.0421 126.426 47.1759C126.126 47.2605 125.208 52.5049 124.529 53.1028H120.857L125.359 35.0929H129.388H129.391Z" fill="#FAFAFA"/>
<path d="M194.796 53.1027H191.004C191.187 50.3591 193.155 46.5808 193.158 43.9764C193.158 41.5576 189.642 42.7506 188.681 44.0255L186.265 53.1027H182.473L185.91 40.3045H189.347L189.464 41.7241C191.408 40.2281 196.385 38.6174 197.294 41.9562C197.985 44.4978 195.036 50.2827 194.799 53.1027H194.796Z" fill="#FAFAFA"/>
<path d="M226.789 40.5475L226.079 42.8107C224.302 42.6578 219.838 41.3911 219.505 44.02C219.342 45.325 222.858 45.3577 223.947 45.871C225.375 46.5426 225.558 47.6782 225.309 49.1361C224.438 54.233 217.283 53.6624 213.518 52.8625L213.993 50.2581C215.503 50.6676 220.42 51.8306 221.051 49.8513C221.141 49.5729 221.198 48.8631 221.061 48.6365C220.363 47.4899 215.015 48.6365 215.473 44.5169C216.052 39.2862 223.03 39.6875 226.794 40.5448L226.789 40.5475Z" fill="#FBFBFB"/>
<path d="M165.41 57.1322L166.12 68.2706H162.803L162.563 66.1385C160.12 66.2914 157.87 65.2185 157.114 68.2706H153.559L160.788 57.1322H165.41ZM162.328 59.7394C161.763 59.6083 161.946 59.8349 161.801 60.0479C161.01 61.2109 160.352 62.5076 159.724 63.7661C161.733 63.6105 162.721 65.0219 162.577 62.2182C162.536 61.3992 162.186 60.6021 162.328 59.7421V59.7394Z" fill="#FF9500"/>
<path d="M207.119 64.9509C206.535 67.9321 211.829 65.9365 212.331 66.3733L211.886 68.1287C207.597 68.9258 202.306 69.3162 204.387 63.2856C205.176 60.9952 206.699 59.9387 209.12 59.7257C212.956 59.3899 214.982 61.1617 213.158 64.9482H207.114L207.119 64.9509ZM210.641 61.6695C209.172 61.0935 207.466 61.765 207.592 63.5286H210.674L210.638 61.6695H210.641Z" fill="#FF9500"/>
<path d="M202.315 60.2772C203.832 61.7978 201.351 66.3187 201.165 68.2379L198.119 68.2679C198.22 66.9275 200 62.8379 199.186 61.8688C195.416 60.5993 196.082 65.9556 195.006 68.2379L191.957 68.2679L194.075 60.0806C195.116 59.9769 196.639 59.5374 197.057 60.6949C198.274 59.8595 201.203 59.1633 202.317 60.2799L202.315 60.2772Z" fill="#FF9500"/>
<path d="M181.763 40.3045L179.156 50.7304H180.578C180.453 52.7369 179.896 53.3539 177.854 53.3348C172.069 53.2802 177.354 45.5816 177.024 42.4366H175.839L176.669 40.3045H181.763Z" fill="#FAFAFA"/>
<path d="M223.472 59.9769L223.229 61.866C222.375 61.7787 218.82 61.2436 218.501 62.2319C218.02 63.717 222.022 62.857 222.637 64.2439C223.136 65.3659 222.705 66.6845 221.82 67.4462C220.016 68.9968 216.442 68.53 214.228 68.2679L214.477 66.3842C216.172 66.4606 217.753 66.8729 219.443 66.3705C220.39 65.2294 216.025 65.2704 215.53 64.2411C215.077 63.2938 215.503 61.6558 216.24 60.9215C217.947 59.2261 221.318 59.8895 223.469 59.9742L223.472 59.9769Z" fill="#FF9500"/>
<path d="M186.977 56.4197L183.906 68.1587C183.628 68.3416 181.627 68.3307 181.165 68.2679C180.838 68.2242 180.756 68.3989 180.819 67.9185L183.658 56.417H186.975L186.977 56.4197Z" fill="#FF9500"/>
<path d="M181.526 59.7394L181.042 62.0981C180.03 62.1909 178.23 61.765 177.627 62.8297C177.155 63.6624 176.502 68.0632 176.289 68.2461L173.232 68.2706L175.356 60.0861L177.974 59.9742L178.091 60.9242C178.659 59.6984 180.327 59.8268 181.528 59.7421L181.526 59.7394Z" fill="#FF9500"/>
<path d="M190.133 66.5507C190.174 66.619 190.521 66.6053 190.543 66.7609C190.819 68.9204 188.263 68.9668 186.961 67.9321C186.644 67.5144 186.707 66.9875 186.74 66.4989C186.775 65.9583 188.187 60.6812 188.381 60.3727C188.727 59.824 191.326 59.7558 191.468 60.3482C191.537 60.6321 190.253 64.5988 190.117 65.3659C190.051 65.7345 189.934 66.2177 190.133 66.5507Z" fill="#FF9500"/>
<path d="M172.76 60.2117L170.832 68.2379L167.783 68.2679L169.789 60.4437C170.161 59.9496 172.08 60.3263 172.76 60.2117Z" fill="#FF9500"/>
<path d="M182.948 35.0929L182.238 38.4099H177.974C178.378 37.3315 178.424 36.0457 179.041 35.0929H182.951H182.948Z" fill="#F8F8F8"/>
<path d="M173.707 56.4197L173.248 58.9231C172.214 59.2971 171.193 58.7347 170.152 58.7866L170.636 56.4279L173.707 56.417V56.4197Z" fill="#FF9500"/>
<path d="M192.192 56.4197L191.951 58.7866L188.872 58.7893L189.333 56.5234L192.192 56.4197Z" fill="#FF9500"/>
</svg>
