<svg width="90" height="70" viewBox="0 0 90 70" fill="none" xmlns="http://www.w3.org/2000/svg">
<path fill-rule="evenodd" clip-rule="evenodd" d="M84.2 59.4998C85.4996 59.4998 86.7459 60.0161 87.6648 60.935C88.5838 61.8539 89.1 63.1002 89.1 64.3998C89.1 65.6994 88.5838 66.9457 87.6648 67.8646C86.7459 68.7836 85.4996 69.2998 84.2 69.2998H5.80002C4.50046 69.2998 3.25413 68.7836 2.3352 67.8646C1.41627 66.9457 0.900024 65.6994 0.900024 64.3998C0.900024 63.1002 1.41627 61.8539 2.3352 60.935C3.25413 60.0161 4.50046 59.4998 5.80002 59.4998H84.2ZM84.2 39.8998C85.4996 39.8998 86.7459 40.4161 87.6648 41.335C88.5838 42.2539 89.1 43.5002 89.1 44.7998C89.1 46.0994 88.5838 47.3457 87.6648 48.2646C86.7459 49.1836 85.4996 49.6998 84.2 49.6998H5.80002C4.50046 49.6998 3.25413 49.1836 2.3352 48.2646C1.41627 47.3457 0.900024 46.0994 0.900024 44.7998C0.900024 43.5002 1.41627 42.2539 2.3352 41.335C3.25413 40.4161 4.50046 39.8998 5.80002 39.8998H84.2ZM89.1 25.1998C89.1 23.9002 88.5838 22.6539 87.6648 21.735C86.7459 20.8161 85.4996 20.2998 84.2 20.2998H5.80002C4.50046 20.2998 3.25413 20.8161 2.3352 21.735C1.41627 22.6539 0.900024 23.9002 0.900024 25.1998C0.900024 26.4994 1.41627 27.7457 2.3352 28.6646C3.25413 29.5836 4.50046 30.0998 5.80002 30.0998H84.2C85.4996 30.0998 86.7459 29.5836 87.6648 28.6646C88.5838 27.7457 89.1 26.4994 89.1 25.1998ZM84.2 0.699803C85.4996 0.699803 86.7459 1.21605 87.6648 2.13498C88.5838 3.0539 89.1 4.30024 89.1 5.5998C89.1 6.89936 88.5838 8.1457 87.6648 9.06463C86.7459 9.98355 85.4996 10.4998 84.2 10.4998H5.80002C4.50046 10.4998 3.25413 9.98355 2.3352 9.06463C1.41627 8.1457 0.900024 6.89936 0.900024 5.5998C0.900024 4.30024 1.41627 3.0539 2.3352 2.13498C3.25413 1.21605 4.50046 0.699803 5.80002 0.699803H84.2Z" fill="white"/>
</svg>
