<svg width="688" height="492" viewBox="0 0 688 492" fill="none" xmlns="http://www.w3.org/2000/svg">
<path fill-rule="evenodd" clip-rule="evenodd" d="M162.171 190.896C153.966 190.896 144.237 198.794 136.212 212.073C127.846 225.824 122.857 242.849 122.857 257.633C122.857 279.278 134.989 301.104 162.174 301.104C189.325 301.104 201.489 279.278 201.489 257.633C201.489 242.849 196.503 225.824 188.179 212.073C180.078 198.794 170.35 190.896 162.171 190.896ZM374.47 223.368H401.991V295.202H431.478V223.368H458.988V196.796H374.47V223.368ZM521.895 223.368H565.143V196.796H521.895C482.163 196.796 460.943 216.575 460.943 245.996C460.943 275.418 482.163 295.202 521.895 295.202H565.143V268.632H521.895C503.505 268.632 491.419 262.051 491.419 246C491.419 229.947 503.505 223.368 521.895 223.368ZM314.496 196.796L298.78 255.531L283.064 196.796H230.976V295.202H260.452V215.161L281.874 295.202H315.686L337.119 215.113V295.202H366.607V196.796H314.496Z" fill="#E30613"/>
</svg>
