<svg width="444" height="112" viewBox="0 0 444 112" fill="none" xmlns="http://www.w3.org/2000/svg">
<path fill-rule="evenodd" clip-rule="evenodd" d="M40.1715 0.895996C31.9658 0.895996 22.2368 8.79384 14.2118 22.0729C5.84641 35.8243 0.857178 52.8487 0.857178 67.6333C0.857178 89.2776 12.9893 111.104 40.1739 111.104C67.3253 111.104 79.4894 89.2776 79.4894 67.6333C79.4894 52.8487 74.5027 35.8243 66.1791 22.0729C58.0779 8.79384 48.3501 0.895996 40.1715 0.895996ZM252.47 33.368H279.991V105.202H309.478V33.368H336.988V6.7963H252.47V33.368ZM399.895 33.368H443.143V6.7963H399.895C360.163 6.7963 338.943 26.5747 338.943 55.9963C338.943 85.4179 360.163 105.202 399.895 105.202H443.143V78.632H399.895C381.505 78.632 369.419 72.0515 369.419 56C369.419 39.9473 381.505 33.368 399.895 33.368ZM192.496 6.7963L176.78 65.5313L161.064 6.7963H108.976V105.202H138.452V25.1614L159.874 105.202H193.686L215.119 25.1135V105.202H244.607V6.7963H192.496Z" fill="#E30613"/>
</svg>
