<svg width="485" height="106" viewBox="0 0 485 106" fill="none" xmlns="http://www.w3.org/2000/svg">
<path fill-rule="evenodd" clip-rule="evenodd" d="M58.5036 0.291422C47.6233 -0.854678 36.655 1.39725 27.1065 6.73769C17.5579 12.0781 9.89779 20.2449 5.17901 30.1155C0.460223 39.986 -1.08558 51.0758 0.75406 61.8606C2.5937 72.6453 7.72849 82.5956 15.4526 90.3437C23.1768 98.0917 33.1111 103.257 43.8901 105.13C54.6691 107.003 65.7636 105.492 75.6488 100.803C85.5339 96.1153 93.7243 88.4804 99.0942 78.9485C104.464 69.4165 106.75 58.4552 105.638 47.5714C104.413 35.4734 99.0579 24.1666 90.4729 15.555C81.8879 6.94341 70.5978 1.553 58.5036 0.291422ZM56.7876 80.9804C50.9358 81.7655 44.9852 80.6971 39.7719 77.9256C34.5587 75.154 30.345 70.8185 27.723 65.5285C25.101 60.2385 24.2025 54.2598 25.1539 48.4328C26.1052 42.6057 28.8586 37.2233 33.0269 33.0419C37.1953 28.8604 42.5691 26.0903 48.3931 25.1207C54.2171 24.1511 60.1986 25.0309 65.4968 27.6363C70.795 30.2418 75.1436 34.4419 77.9315 39.6464C80.7194 44.851 81.8063 50.7982 81.0396 56.6524C80.235 62.81 77.4229 68.5307 73.0387 72.9286C68.6544 77.3266 62.9426 80.1566 56.7876 80.9804ZM133.962 2.38642C132.125 2.39082 130.312 2.80463 128.656 3.59774C126.999 4.39086 125.54 5.54332 124.385 6.97128C123.23 8.39923 122.407 10.0668 121.978 11.8525C121.548 13.6383 121.522 15.4973 121.902 17.2944C123.064 23.1164 128.502 27.0944 134.426 27.0944H168.804L115.304 97.8944C114.908 98.4171 114.666 99.0397 114.604 99.6923C114.542 100.345 114.664 101.002 114.954 101.589C115.245 102.177 115.694 102.672 116.25 103.019C116.806 103.366 117.448 103.551 118.104 103.553H202.024C207.944 103.553 213.386 99.5764 214.548 93.7534C214.927 91.9566 214.901 90.0978 214.472 88.3123C214.043 86.5267 213.221 84.8593 212.066 83.4312C210.912 82.0032 209.453 80.8504 207.797 80.0568C206.141 79.2632 204.329 78.8487 202.493 78.8434H160.606L214.065 8.09842C214.464 7.57066 214.709 6.94202 214.771 6.283C214.833 5.62399 214.71 4.96069 214.417 4.36751C214.123 3.77434 213.67 3.27476 213.108 2.92483C212.546 2.5749 211.898 2.38846 211.236 2.38642H133.962ZM469.301 2.67142C466.522 3.33208 464.053 4.92114 462.3 7.17587C460.547 9.4306 459.616 12.216 459.662 15.0714V56.2094L393.003 3.16342C392.48 2.74847 391.851 2.48952 391.187 2.41636C390.524 2.3432 389.853 2.45879 389.253 2.74985C388.652 3.04091 388.146 3.4956 387.792 4.06163C387.438 4.62765 387.252 5.28201 387.254 5.94942V90.8904C387.208 93.7459 388.139 96.5314 389.892 98.7862C391.644 101.041 394.114 102.63 396.893 103.29C398.697 103.687 400.567 103.674 402.365 103.252C404.164 102.83 405.845 102.009 407.283 100.851C408.722 99.6923 409.883 98.2256 410.68 96.5589C411.476 94.8921 411.888 93.0677 411.886 91.2204V49.7264L478.546 102.773C479.068 103.188 479.697 103.447 480.36 103.52C481.023 103.593 481.694 103.478 482.294 103.187C482.894 102.896 483.401 102.441 483.754 101.875C484.108 101.31 484.294 100.656 484.293 99.9884V14.7374C484.295 12.8905 483.882 11.0668 483.085 9.40059C482.289 7.7344 481.128 6.26828 479.689 5.11031C478.25 3.95235 476.57 3.13207 474.772 2.70997C472.974 2.28786 471.104 2.27469 469.301 2.67142ZM295.739 24.7294C323.934 24.7294 345.001 39.6294 345.001 52.9574C345.001 66.2854 323.934 81.1854 295.739 81.1854C267.544 81.1854 246.477 66.2854 246.477 52.9574C246.477 39.6294 267.544 24.7294 295.739 24.7294ZM295.739 0.0224225C254.928 0.0224225 221.845 23.7224 221.845 52.9574C221.845 82.1924 254.928 105.892 295.739 105.892C336.55 105.892 369.632 82.1924 369.632 52.9574C369.632 23.7224 336.549 0.0224225 295.739 0.0224225Z" fill="#0069FF"/>
</svg>
