<svg width="587" height="420" viewBox="0 0 587 420" fill="none" xmlns="http://www.w3.org/2000/svg">
<path d="M104.192 184.794C106.122 187.325 107.756 190.078 109.059 192.992L72.0671 220.675L56.606 210.836V198.999L72.0671 208.837L104.192 184.794Z" fill="#21A038"/>
<path d="M40.8278 210.002C40.8278 209.47 40.8404 208.943 40.8655 208.416L31.4968 207.95C31.4666 208.63 31.4464 209.318 31.4464 210.009C31.4414 215.424 32.4908 220.783 34.5316 225.781C36.5725 230.783 39.567 235.325 43.3417 239.146L49.9877 232.403C47.0812 229.467 44.7761 225.976 43.2058 222.129C41.6331 218.285 40.8253 214.163 40.8278 210.002Z" fill="url(#paint0_linear_14_103)"/>
<path d="M72.0596 178.296C72.5805 178.296 73.1014 178.316 73.6172 178.341L74.0853 168.828C73.4134 168.795 72.739 168.78 72.0596 168.78C66.7247 168.772 61.4426 169.836 56.5129 171.908C51.5857 173.978 47.1089 177.018 43.3417 180.852L49.9877 187.597C52.8816 184.648 56.3191 182.306 60.1089 180.711C63.8962 179.115 67.9577 178.293 72.0596 178.296Z" fill="url(#paint1_linear_14_103)"/>
<path d="M72.0596 241.705C71.5361 241.705 71.0152 241.705 70.4969 241.662L70.0263 251.173C70.7007 251.208 71.3776 251.226 72.0596 251.226C77.3894 251.231 82.6715 250.167 87.5962 248.095C92.5209 246.023 96.9952 242.983 100.76 239.152L94.1264 232.406C91.2325 235.356 87.7925 237.695 84.0052 239.29C80.2179 240.886 76.1589 241.708 72.0596 241.705Z" fill="url(#paint2_linear_14_103)"/>
<path d="M89.6622 183.829L97.5588 177.92C90.3416 171.989 81.3327 168.757 72.047 168.775V178.296C78.3331 178.288 84.4758 180.217 89.6622 183.829Z" fill="url(#paint3_linear_14_103)"/>
<path d="M112.668 210.002C112.673 207.524 112.459 205.051 112.028 202.613L103.289 209.152V210.002C103.291 214.431 102.375 218.812 100.604 222.86C98.8322 226.906 96.2402 230.531 93.0015 233.497L99.3053 240.571C103.518 236.711 106.885 231.995 109.187 226.727C111.49 221.461 112.675 215.761 112.668 210.002Z" fill="#21A038"/>
<path d="M72.0596 241.705C67.696 241.705 63.3803 240.778 59.3917 238.978C55.4031 237.18 51.8323 234.549 48.9107 231.262L41.9451 237.657C45.7475 241.935 50.3928 245.353 55.5818 247.692C60.7682 250.029 66.3824 251.234 72.0596 251.226V241.705Z" fill="url(#paint4_linear_14_103)"/>
<path d="M51.1151 186.503L44.8139 179.43C40.6013 183.289 37.2318 188.006 34.9292 193.272C32.6266 198.54 31.4414 204.239 31.4464 209.999H40.8278C40.8278 205.57 41.7413 201.189 43.5128 197.143C45.2869 193.095 47.8764 189.47 51.1151 186.503Z" fill="url(#paint5_linear_14_103)"/>
<path d="M265.804 192.352L277.423 183.758H238.536V235.391H277.423V226.798H249.631V213.574H273.339V204.98H249.631V192.352H265.804Z" fill="#21A038"/>
<path d="M212.367 203.874H198.866V192.347H220.415L232.026 183.731H187.776V235.361H210.94C223.925 235.361 231.379 229.455 231.379 219.152C231.379 209.294 224.627 203.874 212.367 203.874ZM210.44 226.768H198.866V212.46H210.44C217.463 212.46 220.757 214.857 220.757 219.614C220.757 224.37 217.254 226.768 210.44 226.768Z" fill="#21A038"/>
<path d="M306.01 183.751H284.841V235.383H295.936V220.758H306.01C319.516 220.758 327.87 213.624 327.87 202.228C327.87 190.829 319.516 183.751 306.01 183.751ZM305.776 212.157H295.936V192.349H305.776C312.88 192.349 316.8 195.871 316.8 202.258C316.8 208.646 312.88 212.157 305.776 212.157Z" fill="#21A038"/>
<path d="M171.125 223.198C168.259 224.756 165.048 225.562 161.789 225.545C152.035 225.545 144.959 218.555 144.959 208.928C144.959 199.304 152.035 192.299 161.789 192.299C165.307 192.238 168.752 193.31 171.621 195.354L179.382 189.617L178.858 189.244C174.328 185.248 168.281 183.133 161.356 183.133C153.844 183.133 147.035 185.669 142.173 190.282C139.715 192.657 137.769 195.518 136.461 198.681C135.152 201.845 134.506 205.243 134.563 208.668C134.513 212.129 135.155 215.565 136.453 218.769C137.754 221.975 139.684 224.884 142.128 227.324C147.012 232.121 153.807 234.763 161.266 234.763C169.056 234.763 175.866 232.036 180.479 227.072L173.531 221.877L171.125 223.198Z" fill="#21A038"/>
<path d="M371.865 203.874H358.37V192.347H387.372V183.731H347.272V235.361H370.406C383.391 235.361 390.845 229.455 390.845 219.152C390.875 209.294 384.126 203.874 371.865 203.874ZM369.938 226.768H358.37V212.46H369.938C376.961 212.46 380.253 214.857 380.253 219.614C380.253 224.37 376.78 226.768 369.938 226.768Z" fill="#21A038"/>
<path d="M516.99 235.288H505.741V183.655H516.99V205.341H523.112L539.645 183.655H552.394L532.783 208.217L555.554 235.288H540.629L523.892 214.981H516.99V235.288Z" fill="#21A038"/>
<path d="M431.712 225.474H407.916L403.882 235.502H391.911L414.23 183.869H426.198L448.154 235.502H435.746L431.712 225.474ZM427.985 216.12L419.884 196.067L411.739 216.12H427.985Z" fill="#21A038"/>
<path d="M463.298 183.869V205.429H486.576V183.869H498.174V235.502H486.576V215.157H463.298V235.502H451.7V183.869H463.298Z" fill="#21A038"/>
<defs>
<linearGradient id="paint0_linear_14_103" x1="45.2389" y1="237.959" x2="34.7102" y2="207.978" gradientUnits="userSpaceOnUse">
<stop stop-color="#F1E813"/>
<stop offset="0.14" stop-color="#F1E813"/>
<stop offset="0.3" stop-color="#E6E418"/>
<stop offset="0.58" stop-color="#C9DA26"/>
<stop offset="0.89" stop-color="#A2CC39"/>
<stop offset="1" stop-color="#A2CC39"/>
</linearGradient>
<linearGradient id="paint1_linear_14_103" x1="46.02" y1="182.535" x2="72.5214" y2="172.586" gradientUnits="userSpaceOnUse">
<stop stop-color="#0FA7DF"/>
<stop offset="0.06" stop-color="#0FA7DF"/>
<stop offset="0.54" stop-color="#0098F8"/>
<stop offset="0.92" stop-color="#0290EA"/>
<stop offset="1" stop-color="#0290EA"/>
</linearGradient>
<linearGradient id="paint2_linear_14_103" x1="69.4085" y1="245.48" x2="99.3068" y2="238.826" gradientUnits="userSpaceOnUse">
<stop stop-color="#A2CC39"/>
<stop offset="0.12" stop-color="#A2CC39"/>
<stop offset="0.28" stop-color="#86C239"/>
<stop offset="0.87" stop-color="#219F38"/>
<stop offset="1" stop-color="#219F38"/>
</linearGradient>
<linearGradient id="paint3_linear_14_103" x1="70.0942" y1="171.964" x2="95.6849" y2="179.743" gradientUnits="userSpaceOnUse">
<stop stop-color="#0290EA"/>
<stop offset="0.06" stop-color="#0290EA"/>
<stop offset="0.79" stop-color="#0C89CA"/>
<stop offset="1" stop-color="#0C89CA"/>
</linearGradient>
<linearGradient id="paint4_linear_14_103" x1="44.2983" y1="236.499" x2="72.1824" y2="246.764" gradientUnits="userSpaceOnUse">
<stop stop-color="#F1E813"/>
<stop offset="0.13" stop-color="#F1E813"/>
<stop offset="0.3" stop-color="#EAE616"/>
<stop offset="0.53" stop-color="#D8DF1F"/>
<stop offset="0.8" stop-color="#BAD52D"/>
<stop offset="0.98" stop-color="#A2CC39"/>
<stop offset="1" stop-color="#A2CC39"/>
</linearGradient>
<linearGradient id="paint5_linear_14_103" x1="34.9416" y1="211.153" x2="46.3897" y2="181.818" gradientUnits="userSpaceOnUse">
<stop stop-color="#A2CC39"/>
<stop offset="0.07" stop-color="#A2CC39"/>
<stop offset="0.26" stop-color="#81C45E"/>
<stop offset="0.92" stop-color="#0FA7DF"/>
<stop offset="1" stop-color="#0FA7DF"/>
</linearGradient>
</defs>
</svg>
