<svg width="525" height="84" viewBox="0 0 525 84" fill="none" xmlns="http://www.w3.org/2000/svg">
<path d="M73.1922 16.7944C75.1223 19.3253 76.7555 22.0779 78.059 24.9919L41.0671 52.6747L25.606 42.8363V30.9988L41.0671 40.8373L73.1922 16.7944Z" fill="#21A038"/>
<path d="M9.82779 42.0016C9.82779 41.4697 9.84037 40.9429 9.86553 40.416L0.496758 39.9497C0.466561 40.6303 0.446429 41.3185 0.446429 42.0092C0.441396 47.4237 1.49076 52.7828 3.53161 57.7815C5.57245 62.7826 8.56704 67.325 12.3417 71.1465L18.9877 64.4035C16.0812 61.4668 13.7761 57.9756 12.2058 54.1289C10.6331 50.2848 9.82527 46.1633 9.82779 42.0016Z" fill="url(#paint0_linear_14_104)"/>
<path d="M41.0596 10.2956C41.5805 10.2956 42.1014 10.3158 42.6172 10.341L43.0853 0.827719C42.4134 0.79495 41.739 0.779825 41.0596 0.779825C35.7247 0.772263 30.4426 1.83602 25.5129 3.90807C20.5857 5.9776 16.1089 9.01762 12.3417 12.8517L18.9877 19.5972C21.8816 16.6479 25.3191 14.3061 29.1089 12.7105C32.8962 11.1149 36.9577 10.2931 41.0596 10.2956Z" fill="url(#paint1_linear_14_104)"/>
<path d="M41.0596 73.7053C40.5361 73.7053 40.0152 73.7053 39.4969 73.6624L39.0263 83.1732C39.7007 83.2085 40.3776 83.2261 41.0596 83.2261C46.3894 83.2312 51.6715 82.1674 56.5962 80.0954C61.5209 78.0233 65.9952 74.9833 69.7598 71.1518L63.1264 64.4062C60.2325 67.3555 56.7925 69.6948 53.0052 71.2904C49.2179 72.886 45.1589 73.7078 41.0596 73.7053Z" fill="url(#paint2_linear_14_104)"/>
<path d="M58.6622 15.8289L66.5588 9.92024C59.3416 3.98893 50.3327 0.757329 41.047 0.774974V10.2958C47.3331 10.2883 53.4758 12.2166 58.6622 15.8289Z" fill="url(#paint3_linear_14_104)"/>
<path d="M81.6677 42.0016C81.6727 39.5237 81.4588 37.0508 81.0285 34.6133L72.2888 41.1521V42.0016C72.2913 46.4305 71.3753 50.8116 69.6037 54.8599C67.8322 58.9057 65.2402 62.5305 62.0015 65.4975L68.3053 72.5707C72.5178 68.7114 75.8848 63.9951 78.1874 58.7267C80.4899 53.4609 81.6752 47.7615 81.6677 42.0016Z" fill="#21A038"/>
<path d="M41.0596 73.7052C36.696 73.7052 32.3803 72.7775 28.3917 70.9777C24.4031 69.1804 20.8323 66.5488 17.9107 63.2617L10.9451 69.6569C14.7475 73.9346 19.3928 77.3527 24.5818 79.6919C29.7682 82.0287 35.3824 83.2336 41.0596 83.226V73.7052Z" fill="url(#paint4_linear_14_104)"/>
<path d="M20.1151 18.5034L13.8139 11.4302C9.6013 15.2894 6.23176 20.0058 3.92921 25.2716C1.62665 30.5399 0.441394 36.2393 0.446427 41.9993H9.82778C9.82778 37.5703 10.7413 33.1892 12.5128 29.1435C14.2869 25.0951 16.8764 21.4703 20.1151 18.5034Z" fill="url(#paint5_linear_14_104)"/>
<path d="M234.804 24.3515L246.423 15.7583H207.536V67.3907H246.423V58.7975H218.631V45.5737H242.339V36.9805H218.631V24.3515H234.804Z" fill="#21A038"/>
<path d="M181.367 35.8742H167.866V24.3469H189.415L201.026 15.731H156.776V67.3609H179.94C192.925 67.3609 200.379 61.4548 200.379 51.1525C200.379 41.2938 193.627 35.8742 181.367 35.8742ZM179.44 58.7676H167.866V44.4599H179.44C186.463 44.4599 189.757 46.8571 189.757 51.6138C189.757 56.3704 186.254 58.7676 179.44 58.7676Z" fill="#21A038"/>
<path d="M275.01 15.751H253.841V67.3834H264.936V52.758H275.01C288.516 52.758 296.87 45.6243 296.87 34.228C296.87 22.8292 288.516 15.751 275.01 15.751ZM274.776 44.1573H264.936V24.3492H274.776C281.88 24.3492 285.8 27.8707 285.8 34.2583C285.8 40.6459 281.88 44.1573 274.776 44.1573Z" fill="#21A038"/>
<path d="M140.125 55.198C137.259 56.7559 134.048 57.5625 130.789 57.5448C121.035 57.5448 113.959 50.5548 113.959 40.9281C113.959 31.3039 121.035 24.2987 130.789 24.2987C134.307 24.2382 137.752 25.3095 140.621 27.3539L148.382 21.6167L147.858 21.2436C143.328 17.2482 137.281 15.1333 130.356 15.1333C122.844 15.1333 116.035 17.6692 111.173 22.2821C108.715 24.6567 106.769 27.5177 105.461 30.6813C104.152 33.8448 103.506 37.2428 103.563 40.6685C103.513 44.1294 104.155 47.5652 105.453 50.7691C106.754 53.9755 108.684 56.8844 111.128 59.3245C116.012 64.1215 122.807 66.7632 130.266 66.7632C138.056 66.7632 144.866 64.0358 149.479 59.0724L142.531 53.8772L140.125 55.198Z" fill="#21A038"/>
<path d="M340.865 35.8742H327.37V24.3469H356.372V15.731H316.272V67.3609H339.406C352.391 67.3609 359.845 61.4548 359.845 51.1525C359.875 41.2938 353.126 35.8742 340.865 35.8742ZM338.938 58.7676H327.37V44.4599H338.938C345.961 44.4599 349.253 46.8571 349.253 51.6138C349.253 56.3704 345.78 58.7676 338.938 58.7676Z" fill="#21A038"/>
<path d="M485.99 67.2877H474.741V15.6553H485.99V37.3412H492.112L508.645 15.6553H521.394L501.783 40.2174L524.554 67.2877H509.629L492.892 46.9806H485.99V67.2877Z" fill="#21A038"/>
<path d="M400.712 57.474H376.916L372.882 67.5016H360.911L383.23 15.8691H395.198L417.154 67.5016H404.746L400.712 57.474ZM396.985 48.1196L388.884 28.067L380.739 48.1196H396.985Z" fill="#21A038"/>
<path d="M432.298 15.8691V37.4291H455.576V15.8691H467.174V67.5016H455.576V47.1566H432.298V67.5016H420.7V15.8691H432.298Z" fill="#21A038"/>
<defs>
<linearGradient id="paint0_linear_14_104" x1="14.2389" y1="69.9587" x2="3.71022" y2="39.9778" gradientUnits="userSpaceOnUse">
<stop stop-color="#F1E813"/>
<stop offset="0.14" stop-color="#F1E813"/>
<stop offset="0.3" stop-color="#E6E418"/>
<stop offset="0.58" stop-color="#C9DA26"/>
<stop offset="0.89" stop-color="#A2CC39"/>
<stop offset="1" stop-color="#A2CC39"/>
</linearGradient>
<linearGradient id="paint1_linear_14_104" x1="15.02" y1="14.5346" x2="41.5214" y2="4.58636" gradientUnits="userSpaceOnUse">
<stop stop-color="#0FA7DF"/>
<stop offset="0.06" stop-color="#0FA7DF"/>
<stop offset="0.54" stop-color="#0098F8"/>
<stop offset="0.92" stop-color="#0290EA"/>
<stop offset="1" stop-color="#0290EA"/>
</linearGradient>
<linearGradient id="paint2_linear_14_104" x1="38.4085" y1="77.4796" x2="68.3068" y2="70.8263" gradientUnits="userSpaceOnUse">
<stop stop-color="#A2CC39"/>
<stop offset="0.12" stop-color="#A2CC39"/>
<stop offset="0.28" stop-color="#86C239"/>
<stop offset="0.87" stop-color="#219F38"/>
<stop offset="1" stop-color="#219F38"/>
</linearGradient>
<linearGradient id="paint3_linear_14_104" x1="39.0942" y1="3.96389" x2="64.6849" y2="11.743" gradientUnits="userSpaceOnUse">
<stop stop-color="#0290EA"/>
<stop offset="0.06" stop-color="#0290EA"/>
<stop offset="0.79" stop-color="#0C89CA"/>
<stop offset="1" stop-color="#0C89CA"/>
</linearGradient>
<linearGradient id="paint4_linear_14_104" x1="13.2983" y1="68.4988" x2="41.1824" y2="78.7642" gradientUnits="userSpaceOnUse">
<stop stop-color="#F1E813"/>
<stop offset="0.13" stop-color="#F1E813"/>
<stop offset="0.3" stop-color="#EAE616"/>
<stop offset="0.53" stop-color="#D8DF1F"/>
<stop offset="0.8" stop-color="#BAD52D"/>
<stop offset="0.98" stop-color="#A2CC39"/>
<stop offset="1" stop-color="#A2CC39"/>
</linearGradient>
<linearGradient id="paint5_linear_14_104" x1="3.94159" y1="43.1527" x2="15.3897" y2="13.8176" gradientUnits="userSpaceOnUse">
<stop stop-color="#A2CC39"/>
<stop offset="0.07" stop-color="#A2CC39"/>
<stop offset="0.26" stop-color="#81C45E"/>
<stop offset="0.92" stop-color="#0FA7DF"/>
<stop offset="1" stop-color="#0FA7DF"/>
</linearGradient>
</defs>
</svg>
