<svg width="360" height="136" viewBox="0 0 360 136" fill="none" xmlns="http://www.w3.org/2000/svg">
<path d="M308.125 1.20392C281.701 6.83175 268.726 26.2717 270.224 57.9922L298.397 55.4919C297.113 37.5708 302.595 33.3199 308.139 30.9823L308.125 1.20392ZM269.041 107.841L269.051 135.696H360M360 135.696V105.102L269.041 107.841M347.733 9.85575C339.286 1.87559 326.901 -1.39794 313.355 0.547043V29.7879C318.841 29.4831 323.285 31.5189 325.265 35.6179C328.393 42.0802 325.167 51.7765 317.555 60.7597C305.809 74.6222 274.569 102.996 274.569 102.996L319.415 101.522C346.815 74.7524 356.654 58.5041 358.42 38.2237C359.348 27.4948 355.454 17.1564 347.733 9.85575ZM148.958 111.49V135.696H182.669V110.473L148.958 111.49ZM121.4 30.7229V135.697H144.624V27.4583L121.4 30.7229ZM221.462 109.296V135.697H260.411V108.119L221.462 109.296ZM221.462 62.8172V89.6692L246.991 88.2756V60.6315L221.462 62.8172ZM221.462 16.6267V42.9905L260.411 38.708V11.1518L221.462 16.6267ZM189.746 21.0858V135.697H216.472V17.329L189.746 21.0858ZM84.1709 113.446V135.697H113.61V112.557L84.1709 113.446ZM84.1709 74.6133V97.1799L103.497 96.1265V72.9504L84.1709 74.6133ZM84.1709 35.9562V58.1184L113.61 54.8794V31.8197L84.1709 35.9562ZM59.9849 39.357V135.697H80.3727V36.4898L59.9849 39.357ZM16.8648 68.5683V135.697H36.212V66.5907L16.8648 68.5683ZM0 47.7859V67.3758L52.848 61.5626V40.3601L0 47.7859Z" fill="#141515"/>
</svg>
